<?xml version="1.0" encoding="iso-8859-1"?>
<!-- Generator: Adobe Illustrator 19.0.0, SVG Export Plug-In . SVG Version: 6.00 Build 0)  -->
<svg version="1.1" id="Layer_1" xmlns="http://www.w3.org/2000/svg" xmlns:xlink="http://www.w3.org/1999/xlink" x="0px" y="0px"
	 viewBox="0 0 512 512" style="enable-background:new 0 0 512 512;" xml:space="preserve">
<g>
	<g>
		<path d="M183.547,376.755c-26.633,0-48.302,21.669-48.302,48.302s21.669,48.302,48.302,48.302
			c26.633,0,48.302-21.669,48.302-48.302S210.18,376.755,183.547,376.755z M183.547,454.038c-15.98,0-28.981-13.001-28.981-28.981
			c0-15.98,13.001-28.981,28.981-28.981c15.98,0,28.981,13.001,28.981,28.981C212.528,441.036,199.527,454.038,183.547,454.038z"/>
	</g>
</g>
<g>
	<g>
		<path d="M386.415,376.755c-26.633,0-48.302,21.669-48.302,48.302s21.669,48.302,48.302,48.302s48.302-21.669,48.302-48.302
			S413.048,376.755,386.415,376.755z M386.415,454.038c-15.98,0-28.981-13.001-28.981-28.981c0-15.98,13.001-28.981,28.981-28.981
			c15.98,0,28.981,13.001,28.981,28.981C415.396,441.036,402.395,454.038,386.415,454.038z"/>
	</g>
</g>
<g>
	<g>
		<path d="M510.052,139.088c-1.826-2.42-4.68-3.843-7.712-3.843H84.471L57.555,45.526c-1.226-4.086-4.987-6.884-9.253-6.884H9.66
			c-5.335,0-9.66,4.325-9.66,9.66c0,5.335,4.325,9.66,9.66,9.66h31.454l26.897,89.659l57.945,202.807
			c1.185,4.146,4.975,7.006,9.289,7.006h309.132c4.314,0,8.104-2.86,9.289-7.006l57.962-202.868
			C512.461,144.645,511.877,141.508,510.052,139.088z M437.091,338.113H142.532L90.089,154.566h399.443L437.091,338.113z"/>
	</g>
</g>
<g>
</g>
<g>
</g>
<g>
</g>
<g>
</g>
<g>
</g>
<g>
</g>
<g>
</g>
<g>
</g>
<g>
</g>
<g>
</g>
<g>
</g>
<g>
</g>
<g>
</g>
<g>
</g>
<g>
</g>
</svg>
